<?xml version="1.0" encoding="UTF-8"?>
<svg width="190px" height="74px" viewBox="0 0 190 74" version="1.1" xmlns="http://www.w3.org/2000/svg" xmlns:xlink="http://www.w3.org/1999/xlink">
    <!-- Generator: Sketch 45 (43475) - http://www.bohemiancoding.com/sketch -->
    <title>Logo</title>
    <desc>Created with Sketch.</desc>
    <defs></defs>
    <g id="Symbols" stroke="none" stroke-width="1" fill="none" fill-rule="evenodd">
        <g id="Nav" transform="translate(-77.000000, -33.000000)">
            <g id="Logo">
                <g transform="translate(77.000000, 33.000000)">
                    <g id="Page-1">
                        <path d="M125.182563,0.409553982 C104.739626,0.409553982 88.1073182,16.8048106 88.1073182,36.9570407 C88.1073182,57.1086159 104.739626,73.5032177 125.182563,73.5032177 C145.6255,73.5032177 162.258472,57.1086159 162.258472,36.9570407 C162.258472,16.8048106 145.6255,0.409553982 125.182563,0.409553982 M125.182563,2.65181947 C144.371899,2.65181947 159.983787,18.0405451 159.983787,36.9570407 C159.983787,55.8722265 144.371899,71.2609522 125.182563,71.2609522 C105.993227,71.2609522 90.3820035,55.8722265 90.3820035,36.9570407 C90.3820035,18.0405451 105.993227,2.65181947 125.182563,2.65181947" id="Fill-1" fill="#FF6200"></path>
                        <path d="M100.064297,45.4182531 C98.2161154,45.4182531 96.2735979,44.8622708 95.0206608,44.0286248 C94.6758706,43.8125186 94.6758706,43.5649788 94.8326538,43.287315 L95.2398916,42.5460053 C95.3966748,42.2676867 95.5846818,42.1137929 95.9288077,42.2991204 C97.5271993,43.1327664 98.6858007,43.4412088 100.127409,43.4412088 C102.382829,43.4412088 103.792549,42.1445717 103.792549,40.5080584 C103.792549,36.5245009 94.9269895,38.9946602 94.9269895,33.0962708 C94.9269895,30.1624655 97.4953112,28.4951735 100.502759,28.4951735 C102.350941,28.4951735 104.168563,29.1127133 105.547059,30.2246779 C105.828738,30.4401292 105.828738,30.687669 105.547059,31.0583239 L105.014262,31.7066425 C104.795031,31.9535274 104.607024,31.9849611 104.324682,31.7688549 C103.16608,30.934554 101.881255,30.4715628 100.409087,30.4715628 C98.2161154,30.4715628 97.0887378,31.521315 97.0887378,32.9731558 C97.0887378,37.0182708 105.953633,34.4243416 105.953633,40.4465009 C105.953633,43.2565363 103.698878,45.4182531 100.064297,45.4182531" id="Fill-3" fill="#FF6200"></path>
                        <path d="M106.987937,30.6568903 C106.705594,30.6568903 106.548811,30.5023416 106.548811,30.1932442 L106.548811,29.2672619 C106.548811,28.9581646 106.705594,28.8036159 106.987937,28.8036159 L109.40014,28.8036159 L109.40014,24.4494035 C109.40014,24.1717398 109.556259,24.0171912 109.869825,24.0171912 L111.217098,24.0171912 C111.53,24.0171912 111.686783,24.1717398 111.686783,24.4494035 L111.686783,28.8036159 L115.759161,28.8036159 C116.041503,28.8036159 116.198287,28.9581646 116.198287,29.2672619 L116.198287,30.1932442 C116.198287,30.5023416 116.041503,30.6568903 115.759161,30.6568903 L111.686783,30.6568903 L111.686783,40.1989611 C111.686783,41.4962531 111.749231,42.3606779 112.188357,42.8243239 C112.533147,43.2251027 113.096503,43.4412088 114.067762,43.4412088 C114.756678,43.4412088 115.791049,43.2565363 116.543077,42.9782177 C116.981538,42.8243239 117.106434,42.9480938 117.231993,43.287315 L117.451224,43.9048549 C117.608007,44.3377221 117.42,44.4608372 117.200769,44.614731 C116.605524,44.9860407 115.133357,45.4182531 113.75486,45.4182531 C112.282028,45.4182531 111.18521,45.0482531 110.558741,44.4608372 C109.650594,43.6271912 109.40014,42.5152265 109.40014,40.4150673 L109.40014,30.6568903 L106.987937,30.6568903 Z" id="Fill-5" fill="#FF6200"></path>
                        <path d="M128.447175,41.866646 C129.167979,40.9714425 129.606441,39.6125929 129.606441,37.7593186 L129.606441,32.6952301 C128.853748,31.521708 127.099902,30.5328584 125.502175,30.5328584 C122.025042,30.5328584 120.615322,33.7142035 120.615322,37.0494425 C120.615322,40.6623451 122.056266,43.3800442 125.220497,43.3800442 C126.410986,43.3800442 127.663259,42.8548407 128.447175,41.866646 M129.856895,42.7009469 C128.853748,44.4304513 127.068678,45.4179912 124.938154,45.4179912 C120.17686,45.4179912 118.203119,41.4344336 118.203119,37.234115 C118.203119,31.7993717 121.398573,28.4949115 125.314168,28.4949115 C127.13179,28.4949115 128.791965,29.2977788 129.825671,30.564292 C129.856895,30.1622035 129.919343,29.3907699 129.982455,29.143885 C130.044238,28.8655664 130.201685,28.8040088 130.45214,28.8040088 L131.580182,28.8040088 C131.955531,28.8040088 132.049867,28.9271239 132.049867,29.2054425 C131.955531,30.8727345 131.893084,32.7260088 131.893084,34.269531 L131.893084,38.0684159 C131.893084,40.322469 132.081091,43.0093894 132.363434,44.6465575 C132.425217,44.9543451 132.33221,45.1095487 131.955531,45.1095487 L130.765042,45.1095487 C130.420916,45.1095487 130.263469,44.9857788 130.201685,44.7074602 C130.076126,44.2136903 129.919343,43.4730354 129.856895,42.7009469" id="Fill-7" fill="#FF6200"></path>
                        <path d="M142.731654,28.6493947 C143.233227,28.6493947 143.452458,28.7423858 143.452458,29.1745982 L143.452458,30.2551292 C143.452458,30.502669 143.39001,30.6873416 143.04522,30.749554 C141.416269,31.0272177 140.351339,31.5524212 139.536199,32.3860673 C138.220815,33.7141381 137.656129,35.4744212 137.656129,38.6551115 L137.656129,44.6772708 C137.656129,44.9542796 137.50001,45.1094832 137.186444,45.1094832 L135.839836,45.1094832 C135.526269,45.1094832 135.37015,44.9542796 135.37015,44.6772708 L135.37015,35.3506513 C135.37015,32.9728283 135.338262,30.8418903 135.275815,29.2361558 C135.275815,28.958492 135.432598,28.8039434 135.7455,28.8039434 L136.967213,28.8039434 C137.312003,28.8039434 137.468787,28.9270584 137.50001,29.2361558 C137.563122,29.915908 137.594346,31.2433239 137.594346,32.2629522 C138.627388,30.1005805 140.696129,28.6493947 142.731654,28.6493947" id="Fill-9" fill="#FF6200"></path>
                        <path d="M145.111969,30.6568903 C144.83029,30.6568903 144.673507,30.5023416 144.673507,30.1932442 L144.673507,29.2672619 C144.673507,28.9581646 144.83029,28.8036159 145.111969,28.8036159 L147.524836,28.8036159 L147.524836,24.4494035 C147.524836,24.1717398 147.680955,24.0171912 147.994521,24.0171912 L149.341129,24.0171912 C149.654696,24.0171912 149.810815,24.1717398 149.810815,24.4494035 L149.810815,28.8036159 L153.883857,28.8036159 C154.166199,28.8036159 154.322318,28.9581646 154.322318,29.2672619 L154.322318,30.1932442 C154.322318,30.5023416 154.166199,30.6568903 153.883857,30.6568903 L149.810815,30.6568903 L149.810815,40.1989611 C149.810815,41.4962531 149.873927,42.3606779 150.312388,42.8243239 C150.657178,43.2251027 151.220535,43.4412088 152.192458,43.4412088 C152.881374,43.4412088 153.915745,43.2565363 154.667108,42.9782177 C155.10557,42.8243239 155.230465,42.9480938 155.356689,43.287315 L155.57592,43.9048549 C155.732038,44.3377221 155.544696,44.4608372 155.325465,44.614731 C154.73022,44.9860407 153.257388,45.4182531 151.879556,45.4182531 C150.406724,45.4182531 149.309906,45.0482531 148.683437,44.4608372 C147.77529,43.6271912 147.524836,42.5152265 147.524836,40.4150673 L147.524836,30.6568903 L145.111969,30.6568903 Z" id="Fill-11" fill="#FF6200"></path>
                        <path d="M167.481413,35.8139699 L176.75421,35.8139699 C176.75421,33.3745894 175.470049,30.5953327 172.525049,30.5953327 C169.643161,30.5953327 167.91921,32.5402885 167.481413,35.8139699 M165.006098,37.3889257 C165.006098,32.1702885 167.91921,28.4951735 172.493825,28.4951735 C176.942217,28.4951735 179.103301,32.0772973 179.103301,36.8329434 C179.103301,37.5126956 178.915958,37.7903593 178.571168,37.7903593 L167.418301,37.7903593 C167.481413,41.5578106 169.392042,43.3180938 173.057846,43.3180938 C174.248336,43.3180938 175.658056,43.0404301 177.161448,42.3298991 C177.44379,42.2067841 177.599909,42.2375628 177.756692,42.5152265 L178.16393,43.4726425 C178.290154,43.781085 178.227042,43.9356336 177.913476,44.1216159 C176.440643,44.9860407 174.686797,45.4182531 172.556273,45.4182531 C167.418301,45.4182531 165.006098,42.2676867 165.006098,37.3889257" id="Fill-13" fill="#FF6200"></path>
                        <path d="M189.179346,28.6493947 C189.680255,28.6493947 189.90015,28.7423858 189.90015,29.1745982 L189.90015,30.2551292 C189.90015,30.502669 189.837038,30.6873416 189.492913,30.749554 C187.863962,31.0272177 186.798367,31.5524212 185.983892,32.3860673 C184.667843,33.7141381 184.103822,35.4744212 184.103822,38.6551115 L184.103822,44.6772708 C184.103822,44.9542796 183.947703,45.1094832 183.634136,45.1094832 L182.286864,45.1094832 C181.973962,45.1094832 181.817178,44.9542796 181.817178,44.6772708 L181.817178,35.3506513 C181.817178,32.9728283 181.785955,30.8418903 181.722843,29.2361558 C181.722843,28.958492 181.88029,28.8039434 182.193192,28.8039434 L183.414906,28.8039434 C183.759696,28.8039434 183.915815,28.9270584 183.947703,29.2361558 C184.010815,29.915908 184.041374,31.2433239 184.041374,32.2629522 C185.07508,30.1005805 187.143157,28.6493947 189.179346,28.6493947" id="Fill-15" fill="#FF6200"></path>
                        <polyline id="Fill-17" fill="#FFFFFF" points="69.7851399 11.6586673 68.6570979 10.8197823 68.1262937 10.9271805 67.7622378 11.6586673 65.74 11.9324018 64.3987063 10.6560655 63.074021 7.44459646 62.692028 5.91613628 61.6058392 5.68889735 60.3708392 6.2298177 58.7126573 5.66532212 57.7513636 5.8958354 57.4331469 6.67447257 56.8757692 7.6757646 56.7076923 9.31096814 57.3281818 11.5754991 56.7953846 12.3718177 57.5161888 14.0057115 56.8757692 15.1386319 56.4286713 16.4162779 55.5590559 16.3108442 54.4496154 16.7921717 54.0476923 17.402508 54.0895455 18.1988265 54.3659091 18.3252159 55.9417133 18.3658177 59.2215385 18.3062248 59.6732867 18.4509504 62.1778322 18.4522602 69.0809441 18.4522602 70.8394406 17.1929504 70.5238811 13.2054637"></polyline>
                        <path d="M71.3606783,8.21681593 L70.7222517,6.9313115 L70.5873916,6.82849735 L70.2073916,6.73550619 L68.9863427,7.12122301 L68.9272168,7.82193097 L68.9703986,7.91033805 C68.9703986,7.91033805 69.0746993,8.09239115 69.1643846,8.17032035 C69.2520769,8.25479823 70.0771818,8.51281593 70.0771818,8.51281593" id="Fill-19" fill="#FFFFFF"></path>
                        <path d="M18.8804196,18.4542248 L18.8804196,18.0462425 C19.7852448,18.0462425 20.426993,17.9742071 20.426993,16.6795345 L20.426993,9.88594159 C20.426993,8.54739292 19.936049,8.51268496 18.8804196,8.51268496 L18.8804196,8.12238407 L24.1944406,8.12238407 L24.1944406,8.51268496 C23.1022727,8.51268496 22.6518531,8.54739292 22.6518531,9.88594159 L22.6518531,16.6795345 C22.6518531,17.9742071 23.2198601,18.0462425 24.1944406,18.0462425 L24.1944406,18.4542248 L18.8804196,18.4542248 Z M37.1416783,10.6121894 L37.1416783,18.532154 L36.5205245,18.532154 L28.4840559,10.3495876 C28.5225874,10.5735522 28.5225874,10.7614991 28.5225874,10.9808796 L28.5225874,15.9703133 C28.5225874,17.4882956 28.5225874,18.0462425 29.936958,18.0462425 L29.936958,18.4542248 L26.1635315,18.4542248 L26.1635315,18.0462425 C27.5931818,18.0462425 27.5931818,17.3808973 27.5931818,15.9703133 L27.5931818,10.2841009 C27.5931818,9.43866726 27.5931818,8.51268496 26.0897902,8.51268496 L26.0897902,8.12238407 L29.6466434,8.12238407 L36.2561189,14.8131628 C36.2195804,14.6252159 36.2195804,14.5151982 36.2195804,14.2552159 L36.2195804,10.6121894 C36.2195804,9.14135752 36.2561189,8.51268496 34.8377622,8.51268496 L34.8377622,8.12238407 L38.6065385,8.12238407 L38.6065385,8.51268496 C37.2147552,8.51268496 37.1416783,9.10533982 37.1416783,10.6121894 L37.1416783,10.6121894 Z M50.1898951,14.9618177 L50.1898951,17.6002779 C48.6858392,18.3455168 47.2674825,18.7142071 45.8557692,18.7142071 C41.9308741,18.7142071 39.5724825,16.4529504 39.5724825,13.5676053 C39.5724825,10.4622248 42.273007,7.89907434 45.702972,7.89907434 C46.551993,7.89907434 47.1957343,8.04707434 47.866049,8.2638354 C48.3496853,8.41510973 48.6473077,8.58210088 48.9469231,8.58210088 C49.2133217,8.58210088 49.2857343,8.14923363 49.3216084,7.89907434 L49.698951,7.89907434 L50.0370979,11.4667912 L49.586014,11.4667912 C49.3993357,10.7614991 49.0611888,10.179977 48.6081119,9.77330442 C47.9025874,9.06801239 46.9293357,8.69342832 45.8165734,8.69342832 C43.4581818,8.69342832 42.083007,10.5375345 42.083007,13.3082779 C42.083007,16.0410389 43.7644406,17.8949681 46.0032517,17.8949681 C46.6642657,17.8949681 47.2674825,17.7489327 48.0075524,17.4129858 L48.0075524,14.7005257 C48.0075524,13.8302071 47.866049,13.4942602 46.5891958,13.4942602 L46.5891958,13.0849681 L51.3285664,13.0849681 L51.3285664,13.4942602 C50.1526923,13.4942602 50.1898951,13.8655699 50.1898951,14.9618177 L50.1898951,14.9618177 Z" id="Fill-21" fill="#000066"></path>
                        <path d="M59.3244441,9.92300708 C59.2493741,9.77304248 59.0600385,9.92300708 58.8726958,9.84900708 C58.8726958,9.92300708 58.8726958,9.99373274 58.9856329,10.0729717 C59.0998986,9.95967965 59.2865769,9.92300708 59.3244441,9.92300708 L59.3244441,9.92300708 Z M59.6253881,7.96822832 C59.6253881,7.89881239 59.5503182,7.82350265 59.4400385,7.74622832 L58.5338846,7.74622832 C58.5338846,7.89881239 58.6441643,7.96822832 58.7584301,7.96822832 C58.7584301,8.12146726 58.8726958,8.14962655 58.9098986,8.19022832 C59.025493,8.26422832 59.0600385,8.26422832 59.1743042,8.19022832 C59.2865769,8.26422832 59.3244441,8.12146726 59.3649685,8.19022832 C59.3649685,8.41550265 59.3649685,8.51242301 59.3244441,8.69316637 C59.2865769,8.95445841 59.0600385,8.91844071 58.8726958,9.02976814 C58.8726958,9.14044071 58.7584301,9.32838761 58.8726958,9.43906018 C58.9856329,9.36506018 59.0600385,9.32838761 59.2493741,9.25242301 C59.2493741,9.14044071 59.3649685,9.02976814 59.512451,8.95445841 C59.512451,8.61982124 59.6253881,8.30155575 59.6253881,7.96822832 L59.6253881,7.96822832 Z M61.3240944,10.1050602 L61.3240944,9.92300708 L60.9460874,9.92300708 L60.9128706,9.95967965 L61.3240944,10.1050602 Z M59.0998986,6.71153805 C59.0600385,6.34874159 58.6441643,6.3146885 58.4568217,6.16799823 L58.3046888,6.16799823 C58.0077308,6.27474159 57.9446189,6.57401593 57.9107378,6.81828142 C58.0077308,7.15226372 58.2289545,6.93157345 58.3797587,7.15226372 C58.5338846,7.04224602 58.9098986,6.77964425 59.0998986,6.71153805 L59.0998986,6.71153805 Z M59.9269965,7.11559115 C59.8552483,7.04224602 59.6253881,7.15226372 59.512451,7.19090088 C59.3649685,7.22691858 59.2493741,7.34021062 59.2493741,7.45022832 L59.6645839,7.45022832 C59.7017867,7.34021062 59.8552483,7.19090088 59.9269965,7.11559115 L59.9269965,7.11559115 Z M61.784479,7.89881239 C61.784479,7.89881239 61.8582203,7.89881239 61.784479,7.85821062 L60.9832902,7.74622832 C60.9128706,7.85821062 60.7248636,7.85821062 60.7248636,7.96822832 L60.6458077,7.96822832 C60.7248636,8.26422832 60.7248636,8.58118407 60.7248636,8.91844071 C60.8730105,8.95445841 61.0218217,9.02976814 61.0218217,9.25242301 C61.1739545,9.32838761 61.3240944,9.36506018 61.4702483,9.47704248 C61.5393392,9.43906018 61.5732203,9.32838761 61.6057727,9.21640531 C61.4702483,9.02976814 61.1347587,9.14044071 61.1347587,8.80449381 L60.9128706,8.73049381 C60.9128706,8.51242301 60.9128706,8.30155575 60.8730105,8.14962655 L60.9128706,8.12146726 C60.9128706,8.14962655 60.9460874,8.19022832 61.0218217,8.26422832 C61.1739545,8.26422832 61.3240944,8.30155575 61.4702483,8.19022832 C61.5393392,8.14962655 61.5393392,7.96822832 61.6057727,7.96822832 C61.6748636,7.96822832 61.7459476,7.96822832 61.784479,7.89881239 L61.784479,7.89881239 Z M61.2111573,7.45022832 C61.2111573,7.34021062 61.1739545,7.34021062 61.1347587,7.34021062 C60.9460874,7.34021062 60.9460874,7.04224602 60.7959476,7.11559115 C60.7248636,7.11559115 60.6458077,7.04224602 60.533535,7.11559115 C60.533535,7.15226372 60.533535,7.15226372 60.6079406,7.15226372 C60.7959476,7.15226372 60.7248636,7.41159115 60.8730105,7.45022832 L61.2111573,7.45022832 Z M62.4647587,7.22691858 C62.5351783,7.04224602 62.5351783,6.71153805 62.3843741,6.53603363 C62.3106329,6.38803363 62.1226259,6.3146885 61.9366119,6.16799823 L61.6748636,6.3146885 C61.5393392,6.38803363 61.4702483,6.53603363 61.4702483,6.71153805 C61.7094091,6.81828142 61.9718217,7.11559115 62.0834301,7.34021062 L62.1970315,7.34021062 C62.3106329,7.22691858 62.3843741,7.34021062 62.4647587,7.22691858 L62.4647587,7.22691858 Z M54.7292343,17.4880336 C54.6900385,17.4880336 54.5797587,17.3773611 54.4648287,17.3773611 C54.3572063,17.6006708 54.4648287,17.7486708 54.4648287,18.0099628 C54.4648287,18.1226 54.4262972,18.2332726 54.4262972,18.2332726 C54.3572063,18.2332726 54.2250035,18.0826531 54.1897937,17.9359628 L54.1897937,17.3400336 L54.5040245,16.9399097 C54.7292343,17.0787416 54.8043042,17.3027062 54.7292343,17.4880336 L54.7292343,17.4880336 Z M55.6951783,17.0787416 C55.6951783,17.2287062 55.6612972,17.3773611 55.5855629,17.4880336 C55.5463671,17.3400336 55.4394091,17.1547062 55.2567168,17.1547062 C55.1045839,17.4493965 55.0693741,17.5620336 55.2208427,18.0099628 C55.1045839,18.1226 55.0301783,18.1586177 54.8840245,18.2332726 C54.8043042,18.0826531 54.8043042,17.8252903 54.8043042,17.6759805 C54.8043042,17.4133788 54.8435,17.1547062 54.9192343,16.9399097 C55.0301783,16.8266177 55.1045839,16.6406354 55.2208427,16.5594319 L55.6194441,16.5594319 C55.4394091,16.5594319 55.4394091,16.7172549 55.4394091,16.8266177 C55.5463671,16.8639451 55.6951783,16.9012726 55.6951783,17.0787416 L55.6951783,17.0787416 Z M57.0178706,17.3027062 C57.0178706,17.6006708 56.5255979,18.0099628 56.5255979,18.0099628 C56.5255979,17.8252903 56.6411923,17.6006708 56.6411923,17.3773611 C56.6411923,17.3773611 56.4910524,17.2287062 56.3355979,17.2287062 C56.2253182,17.3027062 56.2253182,17.3773611 56.187451,17.4880336 C56.0731853,17.713308 55.8473112,17.9359628 55.8107727,18.1586177 C55.7735699,18.1586177 55.7735699,18.1226 55.7735699,18.1226 C55.7735699,17.7486708 55.8107727,17.1173788 56.0359825,16.8639451 C56.2253182,16.6406354 56.3767867,16.6406354 56.6000035,16.6026531 L56.7926608,16.6406354 L56.6411923,16.8639451 C56.7926608,16.9399097 57.0178706,17.0787416 57.0178706,17.3027062 L57.0178706,17.3027062 Z M58.0442692,16.9399097 L57.9446189,17.3027062 L57.695493,16.6406354 C57.3932203,16.3780336 57.0544091,16.3393965 56.8650734,16.1894319 C56.7142692,16.1514496 56.7142692,16.2634319 56.6411923,16.1894319 C56.6411923,16.1167416 56.6411923,16.0008301 56.7541294,15.892777 L56.9786748,15.892777 L57.2058776,16.0008301 C57.319479,16.1167416 57.5832203,16.1167416 57.5832203,16.3393965 C57.5832203,16.3780336 57.5480105,16.4114319 57.6582902,16.5594319 L58.0077308,16.6406354 L58.0442692,16.9399097 Z M58.6062972,16.4114319 L58.3425559,16.6406354 C58.267486,16.5594319 58.3425559,16.3780336 58.2289545,16.2634319 C58.2289545,16.1894319 58.3046888,16.1514496 58.267486,16.1167416 C58.2289545,16.040777 57.8064371,15.892777 57.8064371,15.892777 C57.6582902,15.7814496 57.4696189,15.6655381 57.319479,15.5208124 C57.1693392,15.4854496 57.0544091,15.5581398 56.8650734,15.5941575 L56.8650734,15.5208124 C56.9408077,15.3688832 56.9408077,15.1829009 57.1693392,15.1829009 C57.2796189,15.1829009 57.4330804,15.1829009 57.5048287,15.2955381 C57.6582902,15.2955381 57.7320315,15.4441929 57.8396538,15.4854496 C58.0077308,15.6655381 58.156542,15.7415027 58.267486,15.8161575 C58.267486,15.9294496 58.3046888,16.0008301 58.3797587,16.040777 C58.6062972,16.040777 58.5338846,16.2634319 58.6062972,16.4114319 L58.6062972,16.4114319 Z M58.7949685,15.2588655 C58.7949685,15.3688832 58.7584301,15.8161575 58.7584301,15.8161575 C58.6853531,15.5581398 58.4940245,15.2955381 58.267486,15.2955381 C58.156542,15.1829009 58.0442692,15.0728832 58.0077308,14.9615558 C57.9107378,14.8502283 57.8064371,14.9615558 57.6582902,14.8502283 C57.5048287,14.8502283 57.319479,14.8502283 57.1693392,14.9615558 L57.1693392,14.8502283 L57.4330804,14.5496442 C57.695493,14.5889363 58.0077308,14.5496442 58.079479,14.7375912 C58.267486,14.8502283 58.4568217,14.9615558 58.4940245,15.0355558 L58.4940245,15.1495027 C58.5684301,15.1829009 58.7218916,15.2208832 58.7949685,15.2588655 L58.7949685,15.2588655 Z M58.6062972,13.3800513 L58.4568217,13.924246 C58.267486,14.0670071 58.0077308,13.9975912 57.8064371,13.9975912 C58.079479,13.924246 58.3046888,13.6027062 58.4568217,13.3800513 C58.4940245,13.342069 58.5338846,13.3800513 58.6062972,13.3800513 L58.6062972,13.3800513 Z M58.079479,12.9360513 C58.079479,13.0847062 58.0077308,13.2700336 57.8396538,13.4560159 C57.8064371,13.4920336 57.695493,13.5653788 57.695493,13.5653788 C57.695493,13.342069 57.8064371,13.1580513 57.8064371,12.9727239 C57.9107378,12.9360513 58.0077308,12.8607416 58.079479,12.9360513 L58.079479,12.9360513 Z M57.6582902,12.3728655 C57.4696189,12.562777 57.2796189,12.636777 57.2058776,12.8607416 C57.2058776,12.7494142 57.1693392,12.636777 57.1328007,12.562777 C57.1693392,12.4115027 57.2796189,12.3401221 57.319479,12.3067239 C57.4330804,12.3401221 57.5048287,12.3401221 57.6582902,12.3728655 L57.6582902,12.3728655 Z M60.3814021,15.1829009 C60.2279406,15.2955381 60.1156678,15.2955381 59.9269965,15.2588655 L59.7017867,14.9615558 L60.268465,14.9615558 L60.3814021,15.1829009 Z M59.6253881,13.4920336 C59.512451,13.7146885 59.4035,13.924246 59.1743042,13.9975912 C59.0600385,13.9975912 58.8726958,14.0670071 58.6441643,13.9975912 C58.7584301,13.924246 58.8726958,13.8888832 59.025493,13.7906531 L59.3244441,13.4920336 L59.6253881,13.4920336 Z M63.0646538,17.3773611 L62.9510524,17.4880336 C62.8387797,17.3773611 62.9131853,17.0787416 62.7258427,17.0433788 C62.5351783,17.0433788 62.3843741,16.8639451 62.3106329,16.8266177 L62.4647587,16.7526177 C62.4647587,16.7526177 62.5351783,16.7172549 62.6168916,16.7526177 C62.6893042,16.8266177 62.7650385,16.8639451 62.7650385,16.9399097 C62.8387797,17.0433788 62.9510524,16.9399097 63.0327657,17.0433788 C63.0646538,17.1547062 63.1051783,17.3027062 63.0646538,17.3773611 L63.0646538,17.3773611 Z M60.3056678,13.7906531 C60.268465,13.9975912 60.153535,14.0670071 59.965528,14.3296088 C59.8552483,14.4036088 59.6253881,14.442246 59.4035,14.5496442 C59.4400385,14.442246 59.5503182,14.4036088 59.6253881,14.2896619 C59.7017867,14.1796442 59.8552483,13.9975912 59.8911224,13.8888832 C60.0797937,13.7906531 60.153535,13.7906531 60.3056678,13.7906531 L60.3056678,13.7906531 Z M58.4940245,12.4894319 C58.267486,12.4115027 58.0077308,12.1914673 57.9107378,12.0238212 C57.8396538,11.8751664 57.8064371,11.6878743 57.8064371,11.5778566 C57.9446189,11.5778566 58.0442692,11.6878743 58.079479,11.7631841 L58.079479,11.8011664 C58.267486,12.0238212 58.4568217,12.1914673 58.4940245,12.4894319 L58.4940245,12.4894319 Z M61.3991643,15.1495027 L61.3240944,15.1495027 C61.2882203,15.1495027 61.0218217,15.0355558 60.9460874,14.9615558 C60.9128706,14.8502283 60.9128706,14.7375912 60.9128706,14.7375912 L61.2111573,14.7375912 L61.3991643,15.1495027 Z M64.3727308,16.8639451 C64.3348636,16.9399097 64.2578007,17.1547062 64.2219266,17.3027062 C64.1428706,17.0787416 64.0711224,16.7526177 63.8067168,16.7526177 C63.7688497,16.6026531 63.7296538,16.5594319 63.5788497,16.4507239 L63.2911923,16.4114319 C63.3283951,16.5594319 63.5423112,16.5594319 63.4001434,16.7526177 C63.5423112,16.8639451 63.6572413,16.8639451 63.7296538,17.0433788 C63.8067168,17.1547062 63.7296538,17.3027062 63.7688497,17.3773611 L63.5423112,17.4880336 C63.5423112,17.3027062 63.5788497,16.9399097 63.3283951,16.8639451 C63.1051783,16.9399097 63.0646538,16.6406354 62.9131853,16.5594319 C62.8387797,16.5594319 62.8387797,16.3780336 62.7258427,16.4507239 C62.5351783,16.5594319 62.3106329,16.4507239 62.1226259,16.5594319 L62.3106329,16.2634319 C62.4647587,16.1514496 62.6168916,16.1894319 62.7650385,16.1514496 L63.0646538,16.1167416 C63.3662622,16.1167416 63.6207028,16.2634319 63.9203182,16.3780336 C64.0711224,16.4507239 64.1428706,16.5594319 64.1428706,16.7172549 C64.2219266,16.7526177 64.3727308,16.7526177 64.3727308,16.8639451 L64.3727308,16.8639451 Z M58.9856329,11.9138035 L58.8726958,12.3728655 C58.7584301,12.1508655 58.6441643,11.9504761 58.6062972,11.6878743 L58.9856329,11.9138035 Z M59.7017867,12.9727239 C59.4765769,12.7494142 59.2865769,12.562777 59.2865769,12.3401221 C59.4035,12.3401221 59.512451,12.3401221 59.6253881,12.4115027 C59.6253881,12.5987947 59.7017867,12.7494142 59.7017867,12.9727239 L59.7017867,12.9727239 Z M63.9940594,16.1167416 C63.8425909,16.0008301 63.6207028,16.0008301 63.5423112,15.8161575 C63.4001434,15.7814496 63.2911923,15.7814496 63.1051783,15.7814496 C62.9510524,15.8161575 62.7650385,15.8161575 62.6168916,15.8161575 C62.5757028,15.8161575 62.6168916,15.7814496 62.5351783,15.7415027 C62.3106329,15.8161575 62.0834301,15.8161575 61.8582203,16.040777 L62.0462273,15.5941575 C62.1970315,15.5941575 62.3106329,15.5208124 62.3843741,15.5208124 C62.5351783,15.4854496 62.6514371,15.4854496 62.7650385,15.4854496 L62.7650385,15.5208124 C63.1782552,15.5208124 63.6572413,15.4854496 63.959514,15.8161575 L63.9940594,16.1167416 Z M61.7459476,13.9975912 C61.6748636,14.0670071 61.4702483,14.1449363 61.3240944,14.1449363 C61.0968916,13.9615735 60.9460874,13.7533257 60.7248636,13.4560159 L61.3240944,13.5653788 C61.4350385,13.6439628 61.6423112,13.8888832 61.7459476,13.9975912 L61.7459476,13.9975912 Z M60.4969965,12.3728655 C60.4969965,12.636777 60.456472,12.9727239 60.1914021,13.0847062 L60.1156678,12.7101221 C60.2279406,12.636777 60.3428706,12.562777 60.4969965,12.3728655 L60.4969965,12.3728655 Z M63.9203182,15.3688832 C63.7296538,15.3688832 63.5788497,15.3688832 63.4665769,15.1829009 C63.4307028,15.1829009 63.3662622,15.0728832 63.3283951,15.1495027 C63.1423811,15.2955381 62.9510524,15.0355558 62.7258427,15.0728832 C62.6168916,15.1829009 62.4999685,15.2588655 62.3106329,15.2955381 L62.3106329,15.2588655 C62.3106329,15.1495027 62.3843741,15.0355558 62.5351783,14.9615558 C62.7650385,15.0355558 62.9510524,14.5496442 63.1782552,14.8129009 C63.2911923,14.8502283 63.4001434,14.8502283 63.4665769,14.8502283 C63.7296538,14.9615558 63.8067168,15.1829009 63.9203182,15.3688832 L63.9203182,15.3688832 Z M64.7892692,16.7526177 L64.7500734,16.7526177 C64.6710175,16.6406354 64.6351434,16.5594319 64.5614021,16.5594319 C64.6710175,16.1514496 64.4451434,15.8161575 64.3727308,15.4854496 L64.3727308,15.3688832 C64.4869965,15.5581398 64.7892692,15.7415027 64.7500734,15.9294496 C64.7892692,16.2634319 64.7892692,16.5594319 64.7892692,16.7526177 L64.7892692,16.7526177 Z M61.3240944,12.9727239 C61.1347587,12.8607416 60.7959476,12.8234142 60.8730105,12.5987947 C60.9460874,12.4115027 61.0616818,12.3728655 61.1347587,12.3067239 C61.1739545,12.562777 61.2111573,12.7494142 61.3240944,12.9727239 L61.3240944,12.9727239 Z M57.4696189,8.19022832 L57.2796189,8.41550265 C57.319479,8.76978584 57.1693392,9.02976814 57.1693392,9.36506018 L56.9786748,8.76978584 C57.0178706,8.61982124 57.0544091,8.48295398 57.1693392,8.30155575 L57.4696189,8.19022832 Z M63.0646538,13.7906531 L62.9510524,13.7906531 C62.5351783,13.924246 62.1970315,13.6767062 61.8582203,13.4560159 C62.0462273,13.3800513 62.3106329,13.342069 62.5351783,13.342069 L62.6514371,13.5653788 C62.7650385,13.6027062 62.9510524,13.7146885 63.0646538,13.7906531 L63.0646538,13.7906531 Z M61.1347587,10.7952903 C61.0968916,11.0192549 61.0218217,11.3545469 60.7959476,11.5051664 C60.7959476,11.3545469 60.7248636,11.2812018 60.6458077,11.1705292 C60.6079406,11.1705292 60.6458077,11.2812018 60.6079406,11.2812018 C60.6079406,11.3545469 60.533535,11.5051664 60.533535,11.6531664 C60.456472,11.6878743 60.3056678,11.7631841 60.153535,11.6878743 L60.153535,11.5778566 C60.1156678,11.5051664 60.1156678,11.3545469 60.1156678,11.2812018 L60.0797937,11.2425646 C59.965528,11.2812018 59.965528,11.3545469 59.965528,11.4311664 C59.9269965,11.5051664 59.8552483,11.5778566 59.8552483,11.6878743 C59.7017867,11.6878743 59.6253881,11.6531664 59.512451,11.5778566 L59.512451,11.2425646 C59.512451,11.1705292 59.512451,11.1705292 59.4765769,11.1705292 L59.2865769,11.3545469 C59.1357727,11.2425646 59.0998986,10.9452549 59.0998986,10.761892 C59.7017867,10.4252903 60.456472,10.5359628 60.9128706,10.7219451 C60.9832902,10.761892 61.0616818,10.761892 61.1347587,10.7952903 L61.1347587,10.7952903 Z M62.1970315,12.8234142 C62.0462273,12.8607416 61.784479,12.9360513 61.7094091,12.7494142 C61.505458,12.4115027 61.6057727,12.1161575 61.7094091,11.8751664 C61.784479,12.0886531 61.8216818,12.3067239 61.8582203,12.4894319 C61.8967517,12.636777 62.1226259,12.7101221 62.1970315,12.8234142 L62.1970315,12.8234142 Z M57.3932203,7.67288319 L57.1328007,7.74622832 L57.1693392,7.55893628 C57.2424161,7.45022832 57.2796189,7.34021062 57.3932203,7.22691858 L57.3932203,7.67288319 Z M63.692451,13.3800513 C63.5423112,13.3800513 63.2911923,13.3800513 63.1423811,13.2700336 C62.9131853,13.1580513 62.8387797,13.0847062 62.7258427,12.9727239 C62.8786399,12.8607416 63.0646538,12.8607416 63.1423811,12.8234142 C63.2911923,12.9727239 63.4307028,13.2320513 63.692451,13.3800513 L63.692451,13.3800513 Z M62.6514371,12.3401221 C62.4647587,12.3728655 62.3106329,12.1914673 62.1226259,12.1161575 C62.0462273,11.9138035 62.0462273,11.6878743 61.9718217,11.5778566 C62.1226259,11.6878743 62.4647587,11.6878743 62.3843741,12.0238212 C62.3843741,12.1161575 62.5351783,12.1914673 62.6514371,12.3401221 L62.6514371,12.3401221 Z M65.7372762,14.9615558 C65.7372762,15.1829009 65.588465,15.3688832 65.5499336,15.5941575 C65.5499336,15.3688832 65.5114021,15.1829009 65.3645839,15.0355558 C65.3645839,14.9615558 65.4708776,14.9615558 65.400458,14.8502283 C65.400458,14.8502283 65.1891993,14.7375912 65.1891993,14.5889363 C65.1891993,14.442246 65.3280455,14.3296088 65.400458,14.220246 C65.400458,14.1796442 65.5499336,14.2896619 65.5499336,14.5155912 C65.5499336,14.5496442 65.5499336,14.664246 65.5114021,14.7375912 C65.4708776,14.8502283 65.7372762,14.8502283 65.7372762,14.9615558 L65.7372762,14.9615558 Z M66.6055629,15.3688832 C66.6055629,15.5581398 66.3790245,15.7814496 66.3032902,15.9294496 C66.3790245,15.7415027 66.3790245,15.3688832 66.3032902,15.3688832 C66.2255629,15.335485 66.0740944,15.3688832 66.0740944,15.2955381 C66.0740944,15.1829009 66.1159476,15.0355558 66.1159476,14.9615558 C66.1159476,14.8129009 65.9976958,14.7375912 65.9976958,14.664246 C65.9976958,14.442246 66.2647587,14.4036088 66.3411573,14.2542991 C66.3790245,14.4036088 66.3790245,14.5496442 66.3790245,14.7375912 C66.3790245,14.8129009 66.4912972,15.0355558 66.3790245,15.2208832 C66.3790245,15.335485 66.6055629,15.2588655 66.6055629,15.3688832 L66.6055629,15.3688832 Z M63.5423112,11.9138035 C63.3283951,11.9138035 63.0646538,12.0238212 62.9510524,11.8011664 C63.0327657,11.7631841 63.1051783,11.6531664 63.1782552,11.5778566 L63.5423112,11.9138035 Z M64.5986049,12.7494142 L64.4105979,12.8234142 C63.9940594,12.8234142 63.8067168,12.7101221 63.6207028,12.562777 C63.7688497,12.562777 63.959514,12.3728655 63.959514,12.3728655 C64.1428706,12.562777 64.4105979,12.7101221 64.5986049,12.7494142 L64.5986049,12.7494142 Z M63.0646538,10.4252903 C62.6168916,10.1784053 62.1226259,9.99373274 61.5732203,9.95967965 C61.5732203,10.0729717 61.5732203,10.1784053 61.5393392,10.2150779 C61.9718217,10.4252903 62.3843741,10.6112726 62.7650385,10.9452549 L62.7650385,11.2812018 C62.3843741,10.9092372 61.9718217,10.5359628 61.505458,10.4252903 C61.4702483,10.5006 61.3240944,10.5726354 61.2882203,10.7219451 C61.0218217,10.5359628 60.7248636,10.3499805 60.4192692,10.313308 C60.3056678,10.313308 60.2279406,9.92300708 60.2279406,9.92300708 C60.4192692,9.84900708 60.533535,9.73506018 60.6079406,9.54907788 L60.7587448,9.54907788 C60.8730105,9.54907788 60.8730105,9.47704248 60.8730105,9.36506018 C60.8730105,9.14044071 60.3814021,9.14044071 60.153535,9.14044071 C59.8911224,9.14044071 59.7017867,9.14044071 59.5503182,9.25242301 C59.4765769,9.25242301 59.512451,9.36506018 59.512451,9.43906018 C59.512451,9.47704248 59.6253881,9.54907788 59.6253881,9.54907788 C59.7017867,9.54907788 59.777521,9.47704248 59.8552483,9.47704248 C59.8153881,9.70166195 59.8911224,9.81167965 60.1156678,9.92300708 L60.0797937,10.2844938 C59.6253881,10.2844938 59.3244441,10.461308 58.9856329,10.6112726 C58.8726958,10.5359628 58.7949685,10.4252903 58.7218916,10.313308 C58.267486,10.461308 57.5048287,11.0559274 57.5048287,11.0559274 L57.5048287,10.7952903 C57.8396538,10.5006 58.267486,10.3499805 58.6062972,10.1784053 L58.6062972,9.92300708 C58.4568217,9.84900708 58.3046888,9.92300708 58.156542,9.92300708 C57.8396538,9.95967965 57.5048287,10.1050602 57.2796189,10.2844938 C57.2796189,10.1784053 57.2424161,10.0336796 57.2424161,10.0336796 C57.6582902,9.81167965 58.156542,9.62635221 58.6441643,9.70166195 L58.6441643,9.54907788 C58.6062972,9.47704248 58.6062972,9.36506018 58.5338846,9.36506018 C58.3046888,9.14044071 58.079479,8.80449381 58.079479,8.58118407 L58.2289545,8.51242301 C58.156542,8.30155575 58.079479,7.74622832 58.2289545,7.55893628 C58.0077308,7.45022832 57.8064371,7.26228142 57.7320315,7.11559115 C57.6582902,6.93157345 57.5832203,6.81828142 57.5480105,6.61199823 C57.6582902,6.38803363 57.7320315,6.3146885 57.8396538,6.0946531 C57.9107378,6.0946531 58.0077308,6.05601593 58.0442692,5.98136106 C58.2289545,5.94534336 58.3425559,5.76132566 58.5684301,5.87134336 C58.7218916,5.87134336 58.8726958,5.94534336 58.9856329,5.98136106 C58.9856329,6.05601593 58.9856329,6.0946531 59.0600385,6.16799823 C59.2865769,6.16799823 59.2865769,6.38803363 59.4035,6.57401593 C59.512451,6.61199823 59.6253881,6.61199823 59.7017867,6.61199823 C59.9269965,6.68010442 60.1156678,6.68010442 60.1914021,6.77964425 C60.4969965,6.61199823 60.7959476,6.57401593 61.1347587,6.61199823 C61.1739545,6.49739646 61.2463671,6.34874159 61.2882203,6.16799823 C61.3240944,6.27474159 61.3240944,6.16799823 61.3991643,6.16799823 C61.5393392,6.05601593 61.7094091,5.87134336 61.9718217,5.94534336 C62.1226259,6.05601593 62.3843741,5.98136106 62.5351783,6.16799823 C62.6514371,6.3146885 62.7258427,6.53603363 62.8387797,6.71153805 C62.7258427,6.93157345 62.8387797,7.22691858 62.6168916,7.34021062 L62.3843741,7.55893628 C62.3106329,7.55893628 62.3106329,7.63752035 62.1970315,7.63752035 C62.3106329,7.89881239 62.2348986,8.26422832 62.1226259,8.51242301 C62.1970315,8.48295398 62.3106329,8.48295398 62.3106329,8.37686549 C62.350493,8.41550265 62.3106329,8.48295398 62.3106329,8.51242301 L62.3106329,8.61982124 C62.3106329,8.80449381 62.1970315,8.99309558 62.0462273,9.14044071 C61.9718217,9.36506018 61.784479,9.66171504 61.5393392,9.70166195 L61.5393392,9.77304248 C62.0834301,9.77304248 62.5351783,9.92300708 63.0646538,10.1784053 L63.0646538,10.4252903 Z M65.9611573,13.9975912 C65.9611573,14.0670071 65.8508776,14.1449363 65.8110175,14.1449363 C65.8110175,14.1449363 65.6223462,13.9615735 65.588465,13.7906531 C65.5499336,13.6439628 65.6987448,13.3800513 65.6987448,13.3800513 C65.7372762,13.3800513 65.7758077,13.4560159 65.8110175,13.4560159 C65.8508776,13.4920336 65.8110175,13.6027062 65.8508776,13.7146885 C65.9611573,13.7906531 66.0375559,13.924246 65.9611573,13.9975912 L65.9611573,13.9975912 Z M68.9938497,16.5594319 C68.9938497,16.5731841 68.9227657,16.6406354 68.9227657,16.6406354 C68.7487098,16.5594319 68.6430804,16.5234142 68.416542,16.5234142 C68.416542,16.3780336 68.3042692,16.1894319 68.2258776,16.1894319 C68.0033252,16.1894319 68.036542,16.3393965 67.850528,16.3393965 L68.1893392,16.0008301 C68.2258776,15.9294496 68.2258776,15.9294496 68.3042692,15.9294496 C68.416542,16.0008301 68.4544091,16.040777 68.5653531,16.040777 C68.5653531,16.1167416 68.5653531,16.1514496 68.527486,16.2634319 C68.6430804,16.3393965 68.7141643,16.2261044 68.7859126,16.3393965 C68.8902133,16.3780336 68.9938497,16.4114319 68.9938497,16.5594319 L68.9938497,16.5594319 Z M65.4708776,13.1966885 C65.4708776,13.3080159 65.400458,13.342069 65.3280455,13.4206531 C65.3280455,13.4206531 65.1891993,13.2320513 65.1891993,13.1580513 C65.1891993,13.0087416 65.1891993,12.9360513 65.2224161,12.8234142 C65.3280455,12.9360513 65.4708776,13.0847062 65.4708776,13.1966885 L65.4708776,13.1966885 Z M66.9457028,14.2896619 C66.9457028,14.5155912 66.9078357,14.7788478 66.9078357,15.0355558 C66.7942343,15.0355558 66.7942343,14.9615558 66.7942343,14.8129009 C66.7570315,14.5889363 66.6806329,14.4036088 66.6055629,14.1796442 C66.5311573,13.8888832 66.3411573,13.6439628 66.1903531,13.3080159 C66.1538147,13.1580513 65.9611573,13.0847062 65.8110175,12.9727239 C65.9976958,12.9727239 66.1903531,12.9727239 66.3411573,13.1187593 C66.3411573,13.1966885 66.3790245,13.2320513 66.4912972,13.342069 C66.7570315,13.342069 66.6806329,13.6767062 66.9078357,13.8306 C66.7942343,13.924246 66.7570315,13.9975912 66.6806329,14.0670071 C66.7942343,14.1449363 66.9078357,14.1796442 66.9457028,14.2896619 L66.9457028,14.2896619 Z M65.0138147,12.1914673 C64.9008776,12.3067239 64.5986049,12.3401221 64.3727308,12.1508655 L64.6710175,12.0238212 C64.7892692,12.1161575 64.9407378,12.1508655 65.0138147,12.1914673 L65.0138147,12.1914673 Z M64.1833951,11.3545469 C64.1428706,11.5051664 63.9940594,11.3545469 63.959514,11.3545469 L63.6207028,11.3545469 C63.5788497,11.2812018 63.5423112,11.2425646 63.5423112,11.1705292 C63.692451,11.1325469 63.8067168,11.0559274 63.9203182,11.1325469 C63.9940594,11.2425646 64.0711224,11.3545469 64.1833951,11.3545469 L64.1833951,11.3545469 Z M67.472521,14.2542991 C67.472521,14.4036088 67.397451,14.5155912 67.4359825,14.664246 C67.3595839,14.442246 67.2081154,14.220246 67.1323811,13.9975912 C67.1323811,13.9615735 67.0938497,13.9615735 67.1689196,13.924246 C67.2081154,13.924246 67.3595839,13.924246 67.3595839,13.9615735 C67.397451,14.032954 67.472521,14.1449363 67.472521,14.2542991 L67.472521,14.2542991 Z M69.3658776,15.7814496 C69.3658776,15.9294496 69.3273462,15.9700513 69.287486,16.1514496 C69.0283951,16.1167416 69.0283951,15.8161575 68.9938497,15.7814496 C68.816472,15.5581398 68.5653531,15.7415027 68.3766818,15.7415027 C68.3042692,15.5208124 68.416542,15.5208124 68.416542,15.3688832 C68.527486,15.3688832 68.6430804,15.2955381 68.7487098,15.3688832 C68.9227657,15.2955381 69.0283951,15.4854496 69.2157378,15.4854496 C69.2536049,15.5581398 69.3273462,15.7415027 69.3658776,15.7814496 L69.3658776,15.7814496 Z M70.1212273,16.8266177 C70.0441643,16.9399097 70.0441643,16.9399097 70.0076259,17.0433788 C70.0076259,16.8639451 69.7784301,16.7526177 69.6296189,16.4507239 L69.7784301,16.1894319 C69.8940245,16.2634319 70.0441643,16.3780336 70.0441643,16.5594319 C70.0441643,16.5594319 70.0076259,16.6406354 70.0441643,16.7172549 C70.0441643,16.7526177 70.1212273,16.7526177 70.1212273,16.8266177 L70.1212273,16.8266177 Z M63.9203182,10.5359628 C63.692451,10.5359628 63.5788497,10.4252903 63.4665769,10.2150779 C63.4665769,10.1050602 63.4307028,9.95967965 63.4665769,9.77304248 C63.5423112,9.92300708 63.5423112,9.99373274 63.6207028,10.0729717 C63.7688497,9.99373274 63.7688497,10.1784053 63.8067168,10.2150779 C63.8425909,10.313308 63.9203182,10.4252903 63.9203182,10.5359628 L63.9203182,10.5359628 Z M67.1323811,13.2700336 C66.7942343,13.0847062 66.6055629,12.7494142 66.3032902,12.4115027 C66.6055629,12.4115027 66.6806329,12.7101221 66.9078357,12.7494142 C66.9829056,12.8234142 67.0559825,12.8607416 67.1323811,12.9727239 L67.1323811,13.2700336 Z M69.481472,15.3688832 C69.2157378,15.3688832 69.3658776,14.8502283 68.816472,14.8502283 C68.7141643,14.8502283 68.6430804,15.0355558 68.4942692,15.0728832 C68.4942692,15.0355558 68.527486,14.8129009 68.527486,14.8129009 C68.527486,14.7375912 68.5653531,14.5889363 68.7141643,14.5155912 C68.9938497,14.5155912 68.9227657,14.6236442 69.1380105,14.6996088 C69.2536049,14.7375912 69.3273462,14.8129009 69.481472,14.8129009 L69.481472,15.3688832 Z M70.3856329,15.853485 C70.3856329,16.0761398 70.3856329,16.1514496 70.2713671,16.3393965 L70.0441643,16.0008301 C70.1212273,15.892777 70.1212273,15.7415027 70.2335,15.5581398 C70.2713671,15.5581398 70.3856329,15.8161575 70.3856329,15.853485 L70.3856329,15.853485 Z M63.1423811,8.76978584 C63.1423811,8.80449381 63.0646538,9.14044071 63.0646538,9.14044071 L62.7650385,9.21640531 L62.9510524,8.41550265 C63.0327657,8.54516637 63.1423811,8.69316637 63.1423811,8.76978584 L63.1423811,8.76978584 Z M69.6701434,14.5496442 C69.5532203,14.5155912 69.287486,14.476954 69.287486,14.3695558 C69.287486,14.220246 69.2157378,14.1796442 69.0283951,14.1796442 C68.8902133,14.1796442 68.7859126,14.220246 68.5653531,14.2896619 C68.5653531,14.2896619 68.4544091,14.1449363 68.416542,13.9975912 C68.4942692,13.9615735 68.7859126,13.8888832 68.9227657,13.8888832 C69.1752133,13.8888832 69.4409476,13.8888832 69.4409476,13.9975912 C69.4409476,14.1449363 69.6701434,14.1796442 69.6701434,14.5496442 L69.6701434,14.5496442 Z M70.0076259,13.7533257 C69.7412273,13.7533257 69.481472,13.6767062 69.4409476,13.5653788 C69.3658776,13.4920336 69.4409476,13.342069 69.2536049,13.342069 C69.1752133,13.342069 69.0649336,13.4560159 69.0649336,13.4560159 C68.9938497,13.4920336 68.7859126,13.342069 68.7859126,13.4560159 C68.7859126,13.6439628 68.6430804,13.7146885 68.4544091,13.7146885 C68.3766818,13.7146885 68.3042692,13.7146885 68.2258776,13.6767062 L68.2258776,13.3080159 C68.7141643,13.3080159 68.6789545,13.1580513 68.8902133,13.1580513 C69.0283951,13.1580513 69.1380105,13.2320513 69.2536049,13.2320513 C69.4409476,13.2320513 69.3273462,13.1580513 69.5160175,13.1580513 C69.7040245,13.1580513 69.7784301,13.3080159 69.8940245,13.342069 C69.8940245,13.4560159 70.0076259,13.6027062 70.0076259,13.7533257 L70.0076259,13.7533257 Z M69.8940245,12.9360513 C69.5924161,12.7494142 69.1380105,12.636777 68.8902133,12.636777 C68.7487098,12.636777 68.3042692,12.8234142 68.151472,12.9727239 L68.0757378,12.636777 C68.3042692,12.5987947 68.3042692,12.4115027 68.4544091,12.4115027 C68.5653531,12.4115027 68.7141643,12.3728655 68.816472,12.3728655 C68.9227657,12.3728655 68.9938497,12.3067239 69.0283951,12.3067239 C69.2157378,12.3067239 69.1380105,12.4894319 69.2536049,12.4894319 C69.3658776,12.4894319 69.4409476,12.4115027 69.5160175,12.4115027 C69.7040245,12.4115027 69.8561573,12.7101221 69.8940245,12.9360513 L69.8940245,12.9360513 Z M69.0283951,12.1161575 C68.816472,12.1161575 68.7859126,12.0886531 68.6430804,12.0886531 C68.4544091,12.0886531 68.2258776,12.1508655 68.1129406,12.3401221 C68.036542,12.1914673 68.0757378,12.1161575 68.1129406,12.0238212 C68.2258776,11.9138035 68.416542,11.7631841 68.5653531,11.7631841 C68.816472,11.7631841 69.0283951,11.9504761 69.0283951,12.1161575 L69.0283951,12.1161575 Z M69.0649336,11.5778566 C68.816472,11.5051664 68.6789545,11.3905646 68.4544091,11.3905646 C68.3766818,11.3905646 68.036542,11.5051664 68.0033252,11.5778566 C67.8877308,11.4311664 68.0757378,11.1325469 68.2258776,11.0559274 C68.3766818,10.9799628 68.4544091,11.0192549 68.527486,11.0559274 C68.527486,11.2812018 68.7859126,11.1705292 68.9227657,11.2425646 C68.9938497,11.3545469 69.0283951,11.4311664 69.0649336,11.5778566 L69.0649336,11.5778566 Z M69.9671014,7.34021062 L69.5532203,7.34021062 C69.481472,7.22691858 69.3658776,7.34021062 69.287486,7.34021062 C69.2157378,7.34021062 69.1752133,7.34021062 69.0283951,7.22691858 C69.2536049,7.22691858 69.3658776,7.11559115 69.5532203,7.04224602 C69.7040245,7.15226372 69.8561573,7.19090088 69.9671014,7.34021062 L69.9671014,7.34021062 Z M71.1017867,8.12146726 C71.0260524,7.96822832 70.8745839,7.89881239 70.7616469,7.89881239 C70.6507028,7.74622832 70.4979056,7.55893628 70.3451084,7.55893628 C70.4600385,7.55893628 70.611507,7.45022832 70.797521,7.45022832 C70.8745839,7.63752035 71.0260524,7.74622832 71.0605979,7.89881239 L71.1017867,8.12146726 Z M61.2463671,17.4493965 C61.2111573,17.4493965 61.2882203,17.5273257 60.9128706,17.1547062 C60.8331503,17.1547062 60.7248636,17.3773611 60.7248636,17.4493965 C60.7248636,17.7486708 60.7959476,18.1586177 60.9128706,18.4539628 L61.2111573,18.4539628 C61.2111573,18.1226 61.2463671,17.7486708 61.2463671,17.4493965 L61.2463671,17.4493965 Z M62.0462273,17.4880336 C62.0462273,17.3400336 61.9366119,17.3027062 61.784479,17.3027062 C61.7094091,17.3027062 61.5393392,17.4133788 61.5393392,17.4880336 C61.5393392,17.6386531 61.4702483,18.4539628 61.4702483,18.4539628 L61.7094091,18.4539628 C61.8216818,18.1226 62.0462273,17.6759805 62.0462273,17.4880336 L62.0462273,17.4880336 Z M66.9829056,17.0433788 L66.6055629,17.0787416 C66.7570315,17.1547062 66.7570315,17.3400336 66.7570315,17.3773611 C66.7570315,17.4880336 66.6806329,17.6006708 66.6055629,17.6759805 C66.5311573,17.6006708 66.5311573,17.4880336 66.4521014,17.3773611 C66.3790245,17.3773611 66.3411573,17.5620336 66.3411573,17.6386531 C66.3411573,17.9746 66.4912972,18.2332726 66.6055629,18.4539628 L66.9457028,18.4539628 C66.9078357,18.1586177 66.8287797,17.8953611 66.8287797,17.5620336 C66.8287797,17.3773611 66.9457028,17.1547062 66.9829056,17.0433788 L66.9829056,17.0433788 Z M75.0931154,13.6767062 C75.0931154,12.0611487 74.415493,10.4252903 73.2030804,9.25242301 C72.6802483,8.73049381 72.1075909,8.48295398 71.652521,7.96822832 C71.4266469,7.74622832 71.2539196,7.52750265 71.1017867,7.22691858 C70.9111224,7.04224602 70.797521,6.93157345 70.5723112,6.81828142 C70.611507,6.93157345 70.6507028,7.04224602 70.6859126,7.15226372 L70.6507028,7.15226372 C70.4600385,7.15226372 70.2713671,7.04224602 70.1212273,6.93157345 L70.2713671,6.77964425 C70.2335,6.71153805 70.1212273,6.71153805 70.0441643,6.71153805 C69.4409476,6.61199823 68.8902133,6.93157345 68.3042692,7.04224602 L68.3042692,7.11559115 C68.6789545,7.22691858 68.7487098,7.67288319 68.9566469,7.89881239 L69.1752133,7.89881239 C69.2536049,7.89881239 69.3658776,7.96822832 69.4409476,7.96822832 C69.4409476,7.89881239 69.3658776,7.74622832 69.3658776,7.74622832 C69.4409476,7.67288319 69.5160175,7.67288319 69.5924161,7.74622832 C69.7784301,7.85821062 70.0441643,7.67288319 70.2335,7.96822832 C70.0076259,7.96822832 69.7784301,7.96822832 69.5924161,8.08152035 C69.5924161,8.12146726 69.7040245,8.19022832 69.6701434,8.26422832 C69.481472,8.19022832 69.2536049,8.26422832 69.1752133,8.12146726 L69.1380105,8.14962655 C69.3658776,8.41550265 69.7040245,8.61982124 70.0441643,8.73049381 C70.5377657,8.80449381 70.9496538,8.58118407 71.4266469,8.69316637 C73.1300035,9.51371504 74.3390944,11.4311664 74.3390944,13.342069 C74.3390944,16.0761398 72.7526608,17.1547062 71.7661224,17.1547062 C71.5747937,17.1547062 71.2871364,17.0433788 71.1781853,16.9399097 C71.2871364,16.5594319 71.3588846,16.1167416 71.3588846,15.4441929 C71.3588846,13.8659628 70.7231154,12.1508655 69.8561573,11.2812018 C69.4409476,10.8692903 68.9938497,10.5359628 68.527486,10.5359628 C68.3042692,10.5359628 68.0757378,10.5359628 67.9236049,10.7219451 C67.7369266,10.8692903 67.6219965,11.1705292 67.662521,11.3545469 C67.3595839,11.5778566 66.8686399,11.6878743 66.4912972,11.6878743 C66.0740944,11.6878743 65.5499336,11.5405292 65.0829056,11.1705292 L65.0829056,10.6112726 C64.9759476,10.5726354 64.5986049,10.3499805 64.7892692,10.1784053 C64.9008776,10.2150779 64.9759476,10.2844938 65.0138147,10.313308 C64.9759476,10.0729717 64.9759476,9.77304248 64.7892692,9.54907788 C64.7122063,9.54907788 64.5986049,9.54907788 64.4869965,9.47704248 C64.3727308,9.36506018 64.2578007,9.21640531 64.2578007,9.02976814 C64.3727308,9.21640531 64.5614021,9.14044071 64.6710175,9.25242301 C64.4869965,8.80449381 64.5614021,8.61982124 64.2219266,7.96822832 C64.1428706,7.63752035 63.8067168,7.45022832 63.5788497,7.22691858 C63.4665769,7.15226372 63.4307028,7.04224602 63.2911923,7.04224602 C63.1423811,7.00360885 63.1423811,6.81828142 63.1423811,6.71153805 C63.1782552,6.71153805 63.2911923,6.77964425 63.3662622,6.81828142 C63.1423811,6.3146885 62.9915769,5.76132566 62.4999685,5.46074159 L62.3843741,5.53605133 L61.784479,5.53605133 C61.8582203,5.46074159 62.0076958,5.42406903 62.1226259,5.34941416 C62.0076958,5.23808673 61.9366119,5.20010442 61.7094091,5.20010442 C61.6057727,5.23808673 61.4702483,5.34941416 61.3240944,5.34941416 L61.2882203,5.34941416 C61.2882203,5.23808673 61.2463671,5.08615752 61.4702483,5.01543186 C61.2463671,4.97810442 61.0616818,4.97810442 60.7959476,5.01543186 C60.7587448,5.20010442 60.6458077,5.30946726 60.6458077,5.46074159 C60.533535,5.53605133 60.4969965,5.64606903 60.3814021,5.76132566 C60.3814021,5.53605133 60.4969965,5.30946726 60.533535,5.08615752 C60.3814021,5.12741416 60.1914021,5.23808673 60.1156678,5.23808673 C59.8153881,5.08615752 59.4400385,4.94274159 59.2865769,4.94274159 C59.512451,5.08615752 59.4035,5.34941416 59.4400385,5.53605133 L59.2865769,5.46074159 C59.2493741,5.30946726 59.0600385,5.20010442 59.025493,5.01543186 C58.7949685,5.01543186 58.6441643,5.08615752 58.4568217,5.20010442 L58.4568217,5.23808673 C58.5684301,5.23808673 58.7218916,5.34941416 58.7949685,5.46074159 C58.5338846,5.46074159 58.3425559,5.34941416 58.079479,5.34941416 C58.079479,5.34941416 58.079479,5.30946726 58.0442692,5.30946726 C57.9446189,5.34941416 57.8396538,5.46074159 57.7712273,5.53605133 C57.5048287,5.76132566 57.319479,5.94534336 57.2058776,6.27474159 C57.2796189,6.27474159 57.3932203,6.27474159 57.4330804,6.3146885 C57.2796189,6.34874159 57.2058776,6.53603363 57.0544091,6.57401593 L57.0544091,7.11559115 C56.9408077,7.22691858 56.7926608,7.34021062 56.7142692,7.55893628 C56.5255979,8.14962655 56.4910524,8.80449381 56.4910524,9.54907788 C56.452521,9.70166195 56.3767867,9.73506018 56.2990594,9.77304248 L56.2990594,10.3499805 C56.2990594,10.3499805 56.5255979,10.1417327 56.6411923,10.0729717 L56.6411923,10.5359628 C56.4910524,10.5359628 56.3767867,10.7219451 56.3767867,10.8365469 C56.3767867,10.9799628 56.4146538,11.1325469 56.4146538,11.2812018 C56.4146538,11.3545469 56.4146538,11.3545469 56.452521,11.4311664 C56.452521,11.3545469 56.5255979,11.2812018 56.6411923,11.2425646 C56.6411923,11.2425646 56.7142692,11.1705292 56.8650734,11.1705292 C56.7541294,11.2812018 56.7142692,11.4311664 56.6411923,11.5778566 L56.5255979,11.6878743 C56.5255979,11.6878743 56.4910524,11.7631841 56.4910524,11.8011664 C56.6411923,12.562777 56.8650734,13.2320513 57.1693392,13.9615735 C56.8650734,14.442246 56.5255979,15.3688832 56.2990594,16.2634319 C56.1090594,16.0761398 55.8473112,16.040777 55.6194441,16.040777 C55.4068566,16.0761398 55.1856329,16.1514496 55.0301783,16.3780336 C54.8043042,16.2634319 54.5040245,16.3001044 54.3572063,16.4507239 C54.0462972,16.7172549 54.0462972,16.8639451 54.0462972,17.0787416 C53.9685699,17.1547062 53.8164371,17.3400336 53.8164371,17.6006708 C53.8164371,17.9359628 53.8562972,18.1586177 54.0462972,18.4539628 L59.7017867,18.4539628 C59.6645839,18.3452549 59.5888497,18.1992195 59.512451,18.1226 C59.4035,17.8953611 59.4765769,17.6006708 59.4765769,17.3773611 C59.5888497,17.1547062 59.7017867,16.9399097 59.8552483,16.7526177 C59.8911224,16.6406354 59.8552483,16.6406354 59.8911224,16.6026531 L60.153535,16.5594319 C60.3056678,16.5594319 60.4192692,16.4507239 60.6079406,16.4507239 C60.7248636,16.6026531 60.7248636,16.3393965 60.9128706,16.2634319 C61.3240944,16.1894319 61.7094091,16.2634319 61.9366119,16.5594319 C61.9366119,16.6026531 61.9718217,16.6026531 61.9718217,16.6406354 L61.784479,16.6406354 C61.5732203,16.5594319 61.3240944,16.4507239 61.0616818,16.5594319 C61.0616818,16.6406354 61.0218217,16.6406354 61.0218217,16.7526177 L61.0218217,16.9399097 C61.1739545,16.9399097 61.2882203,17.0787416 61.4350385,17.1547062 C61.505458,17.0433788 61.7094091,16.9399097 61.8582203,16.9399097 C62.0462273,16.9399097 62.3106329,17.0433788 62.3106329,17.3400336 L62.3106329,17.7486708 C62.4647587,17.8953611 62.6514371,17.9359628 62.8387797,18.0099628 C62.7650385,18.1586177 62.6514371,18.1586177 62.5351783,18.1586177 L62.2348986,18.1586177 C62.1970315,18.1226 62.1226259,18.1226 62.1226259,18.0099628 C62.0076958,18.1586177 61.9366119,18.3079274 61.8582203,18.4539628 L66.2255629,18.4539628 C66.1538147,18.3079274 66.0740944,18.1992195 66.0375559,18.1226 C65.9611573,17.8953611 65.9611573,17.6006708 65.9611573,17.3773611 L66.3790245,16.8266177 C66.6055629,16.8266177 66.7942343,16.7526177 67.2081154,16.7172549 C67.286507,16.6026531 67.2081154,16.5594319 67.5469266,16.5594319 C67.8126608,16.5594319 68.0033252,16.6026531 68.0757378,16.6406354 C68.1129406,16.7172549 68.1129406,16.7172549 68.0757378,16.7873257 C68.0033252,16.8639451 67.850528,16.7172549 67.7369266,16.7526177 C67.662521,16.8266177 67.7728007,16.8639451 67.7728007,16.9399097 C67.850528,17.0034319 67.4359825,16.8639451 67.4359825,16.8639451 C67.4359825,16.8639451 67.3595839,17.0787416 67.3230455,17.1547062 C67.3230455,17.1547062 67.472521,17.3027062 67.5469266,17.3773611 C67.6219965,17.4880336 67.4359825,17.6006708 67.4359825,17.713308 C67.3595839,17.6759805 67.2081154,17.5620336 67.2081154,17.6006708 C67.1323811,17.8953611 67.2081154,18.1586177 67.1689196,18.4539628 L67.5841294,18.4539628 L67.6219965,17.8252903 C67.662521,17.4493965 68.1129406,16.7873257 68.3766818,16.7873257 C68.527486,16.7873257 68.6430804,16.8639451 68.7487098,16.9399097 C68.816472,17.0787416 68.9938497,17.1547062 68.9938497,17.2287062 C68.9938497,17.3027062 68.8902133,17.3400336 68.7141643,17.3400336 C68.6430804,17.3400336 68.6430804,17.2287062 68.527486,17.1547062 L68.3042692,17.3773611 C68.3042692,17.3773611 68.5653531,17.6006708 68.5653531,17.7486708 C68.5653531,17.9359628 68.527486,18.0099628 68.416542,18.1226 L68.1893392,17.6759805 C68.0757378,17.6759805 67.8877308,17.8953611 67.8877308,18.0099628 C67.8877308,18.1586177 67.8126608,18.2332726 67.8126608,18.4539628 L70.1212273,18.4539628 C70.3856329,18.4539628 70.611507,18.3832372 70.8745839,18.2332726 L71.3256678,18.2332726 C72.2544091,18.2332726 72.9778706,17.9746 73.659479,17.3027062 C74.5656329,16.4507239 75.0931154,15.0355558 75.0931154,13.6767062 L75.0931154,13.6767062 Z M60.6079406,18.4539628 C60.4192692,18.1226 60.3814021,17.6006708 60.3814021,17.4880336 C60.3814021,17.3027062 60.3814021,17.0433788 60.4969965,16.8639451 L60.0797937,16.9399097 C59.965528,17.0787416 59.9269965,17.1547062 59.9269965,17.2287062 L60.1156678,17.1547062 C60.153535,17.1547062 60.1914021,17.2287062 60.2279406,17.3027062 C60.1914021,17.4880336 59.965528,17.4880336 59.8911224,17.5620336 C59.777521,17.9359628 60.1156678,18.1586177 60.153535,18.4539628 L60.6079406,18.4539628 Z" id="Fill-23" fill="#FF6200"></path>
                        <path d="M26.728549,28.6493947 C27.2301224,28.6493947 27.4486888,28.7423858 27.4486888,29.1745982 L27.4486888,30.2551292 C27.4486888,30.502669 27.3869056,30.6873416 27.0421154,30.749554 C25.4131643,31.0272177 24.3482343,31.5524212 23.5330944,32.3860673 C22.2177098,33.7141381 21.6530245,35.4744212 21.6530245,38.6551115 L21.6530245,44.6772708 C21.6530245,44.9542796 21.4969056,45.1094832 21.1833392,45.1094832 L19.8367308,45.1094832 C19.5231643,45.1094832 19.3663811,44.9542796 19.3663811,44.6772708 L19.3663811,35.3506513 C19.3663811,32.9728283 19.3351573,30.8418903 19.2727098,29.2361558 C19.2727098,28.958492 19.429493,28.8039434 19.7423951,28.8039434 L20.9641084,28.8039434 C21.3088986,28.8039434 21.4656818,28.9270584 21.4969056,29.2361558 C21.5593531,29.915908 21.5912413,31.2433239 21.5912413,32.2629522 C22.6249476,30.1005805 24.6923601,28.6493947 26.728549,28.6493947" id="Fill-25" fill="#FF6200"></path>
                        <path d="M30.0492308,35.8139699 L39.322028,35.8139699 C39.322028,33.3745894 38.0378671,30.5953327 35.0928671,30.5953327 C32.210979,30.5953327 30.4876923,32.5402885 30.0492308,35.8139699 M27.5745804,37.3889257 C27.5745804,32.1702885 30.4876923,28.4951735 35.0616434,28.4951735 C39.510035,28.4951735 41.6717832,32.0772973 41.6717832,36.8329434 C41.6717832,37.5126956 41.4837762,37.7903593 41.138986,37.7903593 L29.9867832,37.7903593 C30.0492308,41.5578106 31.9598601,43.3180938 35.6256643,43.3180938 C36.8161538,43.3180938 38.2258741,43.0404301 39.7292657,42.3298991 C40.0116084,42.2067841 40.1683916,42.2375628 40.3245105,42.5152265 L40.7324126,43.4726425 C40.8573077,43.781085 40.7948601,43.9356336 40.4812937,44.1216159 C39.0091259,44.9860407 37.2546154,45.4182531 35.1240909,45.4182531 C29.9867832,45.4182531 27.5745804,42.2676867 27.5745804,37.3889257" id="Fill-27" fill="#FF6200"></path>
                        <path d="M53.9205385,41.866646 C54.6406783,40.9714425 55.0798042,39.6125929 55.0798042,37.7593186 L55.0798042,32.6952301 C54.3277762,31.521708 52.5739301,30.5328584 50.9755385,30.5328584 C47.4984056,30.5328584 46.0886853,33.7142035 46.0886853,37.0494425 C46.0886853,40.6623451 47.5296294,43.3800442 50.6938601,43.3800442 C51.8843497,43.3800442 53.1372867,42.8548407 53.9205385,41.866646 M55.3302587,42.7009469 C54.3277762,44.4304513 52.542042,45.4179912 50.4115175,45.4179912 C45.6495594,45.4179912 43.6764825,41.4344336 43.6764825,37.234115 C43.6764825,31.7993717 46.8719371,28.4949115 50.7881958,28.4949115 C52.6044895,28.4949115 54.2653287,29.2977788 55.299035,30.564292 C55.3302587,30.1622035 55.3927063,29.3907699 55.4558182,29.143885 C55.5182657,28.8655664 55.675049,28.8040088 55.9255035,28.8040088 L57.0535455,28.8040088 C57.4288951,28.8040088 57.5232308,28.9271239 57.5232308,29.2054425 C57.4288951,30.8727345 57.3664476,32.7260088 57.3664476,34.269531 L57.3664476,38.0684159 C57.3664476,40.322469 57.5544545,43.0093894 57.8367972,44.6465575 C57.8992448,44.9543451 57.8049091,45.1095487 57.4288951,45.1095487 L56.2384056,45.1095487 C55.8942797,45.1095487 55.7374965,44.9857788 55.675049,44.7074602 C55.5494895,44.2136903 55.3927063,43.4730354 55.3302587,42.7009469" id="Fill-29" fill="#FF6200"></path>
                        <path d="M68.0879615,28.494977 C70.5632762,28.494977 72.4739056,29.6684991 73.2571573,31.3056673 C74.4164231,29.6684991 76.4213881,28.494977 78.9591503,28.494977 C80.5568776,28.494977 82.2170524,29.0201805 83.3450944,30.162269 C84.3163531,31.1511186 84.9109336,32.6330832 84.9109336,34.9801274 L84.9109336,44.6767469 C84.9109336,44.9544106 84.7548147,45.1096142 84.4100245,45.1096142 L83.0939755,45.1096142 C82.7810734,45.1096142 82.6242902,44.9544106 82.6242902,44.6767469 L82.6242902,36.802623 C82.6242902,34.1772602 82.5306189,32.8184106 81.6842552,31.8302159 C81.0265629,31.0273487 79.8367378,30.7189062 78.5206888,30.7189062 C77.236528,30.7189062 75.7318077,31.1818973 74.9492203,32.0463221 C74.6668776,32.3554195 74.2596399,32.8799681 74.1028566,34.4241451 C74.0404091,35.3507823 74.0091853,37.0802867 74.0091853,39.0874549 L74.0091853,44.6767469 C74.0091853,44.9544106 73.8524021,45.1096142 73.5395,45.1096142 L72.1922273,45.1096142 C71.8786608,45.1096142 71.7218776,44.9544106 71.7218776,44.6767469 L71.7218776,36.802623 C71.7218776,34.1772602 71.6282063,32.8184106 70.782507,31.8302159 C70.1241503,31.0273487 68.9336608,30.7189062 67.6182762,30.7189062 C66.333451,30.7189062 64.8300594,31.1818973 64.0468077,32.0463221 C63.7651294,32.3554195 63.3572273,32.8799681 63.2323322,34.4241451 C63.1698846,35.3507823 63.1067727,37.0802867 63.1067727,39.0874549 L63.1067727,44.6767469 C63.1067727,44.9544106 62.9506538,45.1096142 62.6370874,45.1096142 L61.2898147,45.1096142 C60.9762483,45.1096142 60.8201294,44.9544106 60.8201294,44.6767469 L60.8201294,35.3507823 C60.8201294,32.9729593 60.7889056,30.8420212 60.7257937,29.2362867 C60.7257937,28.958623 60.8825769,28.8040743 61.1961434,28.8040743 L62.4490804,28.8040743 C62.7938706,28.8040743 62.9506538,28.9271894 62.9812133,29.2362867 C63.0131014,29.5139504 63.0762133,30.2244814 63.0762133,30.6566938 C64.1717028,29.4216142 66.0517727,28.494977 68.0879615,28.494977" id="Fill-31" fill="#FF6200"></path>
                        <path d="M12.1631224,27.4461416 C10.9434021,25.9045841 8.84875175,24.9491327 5.53371678,24.9491327 L2.8125979,24.9491327 L2.8125979,43.0752035 L5.53371678,43.0752035 C8.84875175,43.0752035 10.9434021,42.1190973 12.1631224,40.5781947 C13.3516189,39.1296283 14.0392063,36.9711858 14.0392063,34.0118407 C14.0392063,31.0524956 13.3516189,28.894708 12.1631224,27.4461416 M13.7894161,42.3967611 C11.8502203,44.4 9.25466084,45.1092212 5.25203846,45.1092212 L0.936513986,45.1092212 C0.592388112,45.1092212 0.405045455,44.9245487 0.405045455,44.6161062 L0.405045455,23.4075752 C0.405045455,23.0991327 0.592388112,22.9144602 0.936513986,22.9144602 L5.25203846,22.9144602 C9.25466084,22.9144602 11.8502203,23.6230265 13.7894161,25.6275752 C15.5093811,27.3839292 16.5410944,30.0970442 16.5410944,34.0118407 C16.5410944,37.927292 15.5093811,40.6397522 13.7894161,42.3967611" id="Fill-33" fill="#FF6200"></path>
                    </g>
                </g>
            </g>
        </g>
    </g>
</svg>